<?xml version="1.0" encoding="iso-8859-1"?>
<!-- Generator: Adobe Illustrator 16.0.0, SVG Export Plug-In . SVG Version: 6.00 Build 0)  -->
<!DOCTYPE svg PUBLIC "-//W3C//DTD SVG 1.1//EN" "http://www.w3.org/Graphics/SVG/1.1/DTD/svg11.dtd">
<svg version="1.1" id="Capa_1" xmlns="http://www.w3.org/2000/svg" xmlns:xlink="http://www.w3.org/1999/xlink" x="0px" y="0px"
	 width="557.212px" height="557.211px" viewBox="0 0 557.212 557.211" style="enable-background:new 0 0 557.212 557.211;"
	 xml:space="preserve">
<g>
	<g>
		<g>
			<path d="M53.566,177.725h75.576c15.961,0,28.911-12.948,28.911-28.927c0-11.55,9.351-20.902,20.9-20.902h199.346
				c11.53,0,20.884,9.352,20.884,20.902c0,15.979,12.948,28.927,28.926,28.927h75.56c15.979,0,28.93-12.948,28.93-28.927V92.524
				c0-45.235-36.665-81.897-81.896-81.897H106.533c-45.233,0-81.896,36.663-81.896,81.897v56.273
				C24.639,164.776,37.587,177.725,53.566,177.725z"/>
			<path d="M554.965,471.605l-36.754-129.198c-16.779-58.999-67.894-100.637-127.876-106.847v-34.3
				c0-21.753-17.632-39.389-39.386-39.389c-21.773,0-39.403,17.636-39.403,39.389v33.05h-65.881v-33.033
				c0-21.752-17.63-39.386-39.384-39.386c-21.756,0-39.388,17.634-39.388,39.386v34.284
				c-59.999,6.191-111.115,47.848-127.892,106.847L2.248,471.605c-5.049,17.74-1.491,36.846,9.643,51.591
				c11.13,14.727,28.523,23.389,46.973,23.389h439.479c18.45,0,35.845-8.662,46.979-23.389
				C556.452,508.45,560.013,489.345,554.965,471.605z M263.807,472.386c0,5.629-4.555,10.187-10.186,10.187H201.45
				c-5.628,0-10.188-4.558-10.188-10.187v-52.169c0-5.63,4.56-10.186,10.188-10.186h52.171c5.63,0,10.186,4.556,10.186,10.186
				V472.386z M263.807,370.189c0,5.629-4.555,10.187-10.186,10.187H201.47c-5.63,0-10.188-4.558-10.188-10.187v-52.15
				c0-5.63,4.557-10.188,10.188-10.188h52.151c5.63,0,10.186,4.559,10.186,10.188V370.189z M365.968,472.368
				c0,5.629-4.558,10.186-10.187,10.186h-52.154c-5.628,0-10.186-4.557-10.186-10.186v-52.134c0-5.631,4.558-10.188,10.186-10.188
				h52.154c5.629,0,10.187,4.558,10.187,10.188V472.368z M365.968,370.189c0,5.629-4.558,10.187-10.187,10.187h-52.135
				c-5.631,0-10.188-4.558-10.188-10.187v-52.135c0-5.63,4.557-10.188,10.188-10.188h52.135c5.629,0,10.187,4.558,10.187,10.188
				V370.189z"/>
		</g>
	</g>
</g>
<g>
</g>
<g>
</g>
<g>
</g>
<g>
</g>
<g>
</g>
<g>
</g>
<g>
</g>
<g>
</g>
<g>
</g>
<g>
</g>
<g>
</g>
<g>
</g>
<g>
</g>
<g>
</g>
<g>
</g>
</svg>
